<?xml version="1.0" encoding="iso-8859-1"?>
<!-- Uploaded to: SVG Repo, www.svgrepo.com, Generator: SVG Repo Mixer Tools -->
<svg fill="#4f5667" version="1.1" id="Layer_1" xmlns="http://www.w3.org/2000/svg" xmlns:xlink="http://www.w3.org/1999/xlink" 
	 viewBox="0 0 512 512" xml:space="preserve">
<g>
	<g>
		<rect x="7.604" y="374.263" width="496.793" height="15.207"/>
	</g>
</g>
<g>
	<g>
		<path d="M444.695,240.935L444.695,240.935C440.75,174.981,385.85,122.53,318.923,122.53c-40.436,0-76.48,19.15-99.552,48.852
			c-16.352-12.005-36.156-18.544-56.601-18.544c-50.211,0-91.511,38.869-95.399,88.097H0v7.604
			c0,60.937,49.576,110.514,110.514,110.514h65.384v-15.207h-65.384c-49.993,0-91.118-38.693-95.005-87.703h51.561h125.846h15.207
			h236.81h51.56c-3.887,49.01-45.013,87.703-95.004,87.703H196.176v15.207h205.311c60.937,0,110.513-49.576,110.513-110.514v-7.604
			H444.695z M144.411,240.935c2.992-7.196,10.091-12.272,18.358-12.272c8.267,0,15.367,5.076,18.358,12.272H144.411z
			 M196.149,220.104c-0.003,0.011-0.005,0.022-0.008,0.034c-0.853,3.704-1.538,7.454-2.054,11.238
			c-0.05,0.362-0.106,0.722-0.152,1.084c-5.842-11.277-17.615-19.005-31.167-19.005c-16.734,0-30.76,11.78-34.244,27.48H113.16
			c3.675-24.076,24.521-42.581,49.609-42.581c13.277,0,25.91,5.255,35.277,14.516C197.342,215.261,196.71,217.673,196.149,220.104z
			 M203.664,197.541c-11.515-9.237-25.888-14.392-40.895-14.392c-33.484,0-61.155,25.302-64.935,57.788H82.631
			c3.841-40.835,38.315-72.891,80.138-72.891c17.346,0,34.147,5.59,47.967,15.854C208.091,188.315,205.734,192.871,203.664,197.541z
			 M300.565,240.935c2.992-7.197,10.092-12.272,18.358-12.272c8.267,0,15.365,5.076,18.358,12.272H300.565z M353.168,240.935
			c-3.485-15.7-17.511-27.48-34.245-27.48c-16.734,0-30.76,11.78-34.244,27.48h-15.364c3.675-24.076,24.521-42.581,49.609-42.581
			s45.934,18.504,49.609,42.581H353.168z M383.859,240.935c-3.782-32.486-31.453-57.788-64.936-57.788
			c-33.484,0-61.155,25.302-64.935,57.788h-15.189c3.845-40.83,38.305-72.89,80.124-72.89c41.818,0,76.278,32.06,80.123,72.89
			H383.859z M414.32,240.933v0.002c-3.888-49.229-45.188-88.097-95.399-88.097s-91.511,38.869-95.399,88.097h-15.135
			c0.009-0.131,0.012-0.263,0.021-0.393c0.021-0.302,0.049-0.602,0.072-0.903c0.075-0.944,0.163-1.886,0.262-2.825
			c0.036-0.337,0.067-0.674,0.106-1.01c0.124-1.079,0.266-2.155,0.42-3.228c0.069-0.475,0.144-0.949,0.219-1.421
			c0.106-0.675,0.221-1.348,0.34-2.022c0.153-0.867,0.317-1.729,0.491-2.588c0.11-0.55,0.222-1.101,0.341-1.649
			c0.155-0.713,0.318-1.422,0.488-2.131c0.059-0.246,0.122-0.492,0.181-0.739c11.911-48.337,55.629-84.29,107.592-84.29
			c58.542,0,106.625,45.633,110.544,103.198H414.32z"/>
	</g>
</g>
</svg>