<?xml version="1.0" encoding="iso-8859-1"?>
<!-- Uploaded to: SVG Repo, www.svgrepo.com, Generator: SVG Repo Mixer Tools -->
<svg fill="#4f5667" height="800px" width="800px" version="1.1" id="Layer_1" xmlns="http://www.w3.org/2000/svg" xmlns:xlink="http://www.w3.org/1999/xlink" 
	 viewBox="0 0 512 512" xml:space="preserve">
<g>
	<g>
		<path d="M462.841,119.825H184.296l15.601-78.429l-14.911-2.966l-16.191,81.396h-49.272L103.332,38.43l-14.911,2.967l15.601,78.429
			H49.159C22.053,119.826,0,141.878,0,168.985v255.426c0,27.107,22.053,49.159,49.159,49.159H158.7v-15.204H49.159
			c-18.723,0-33.955-15.232-33.955-33.955V319.504h52.034V304.3H15.204v-15.205h72.308v-15.204H15.204V168.984
			c0-18.723,15.232-33.955,33.955-33.955h57.886l29.364,147.616l-25.194,126.66l14.911,2.966l18.034-90.662l18.034,90.662
			l14.911-2.967l-25.195-126.66l29.362-147.615h281.568c18.723,0,33.955,15.232,33.955,33.955V424.41
			c0,18.723-15.232,33.955-33.955,33.955H178.973v15.204h283.867c27.107,0,49.159-22.053,49.159-49.159V168.984
			C512,141.877,489.947,119.825,462.841,119.825z M144.161,243.68l-21.613-108.651h43.225L144.161,243.68z"/>
	</g>
</g>
<g>
	<g>
		<path d="M271.645,296.988c-35.07,0-63.602,28.532-63.602,63.602s28.532,63.601,63.602,63.601s63.601-28.531,63.601-63.601
			C335.246,325.519,306.716,296.988,271.645,296.988z M271.645,408.987c-26.687,0-48.398-21.71-48.398-48.397
			c0-26.687,21.711-48.398,48.398-48.398c26.686,0,48.397,21.711,48.397,48.398C320.042,387.277,298.331,408.987,271.645,408.987z"
			/>
	</g>
</g>
<g>
	<g>
		<path d="M271.645,332.725c-15.365,0-27.866,12.501-27.866,27.866c0,15.365,12.501,27.866,27.866,27.866
			c15.365,0,27.866-12.501,27.866-27.866C299.511,345.226,287.01,332.725,271.645,332.725z M271.645,373.252
			c-6.983,0-12.662-5.68-12.662-12.662s5.679-12.662,12.662-12.662c6.983,0,12.662,5.68,12.662,12.662
			S278.627,373.252,271.645,373.252z"/>
	</g>
</g>
<g>
	<g>
		<path d="M416.134,296.988c-35.07,0-63.601,28.532-63.601,63.602s28.531,63.601,63.601,63.601
			c35.071,0,63.603-28.531,63.603-63.601C479.737,325.519,451.206,296.988,416.134,296.988z M416.134,408.987
			c-26.686,0-48.397-21.71-48.397-48.397c0-26.687,21.711-48.398,48.397-48.398c26.687,0,48.399,21.711,48.399,48.398
			S442.821,408.987,416.134,408.987z"/>
	</g>
</g>
<g>
	<g>
		<path d="M416.133,332.724c-15.365,0-27.866,12.501-27.866,27.866s12.501,27.866,27.866,27.866
			c15.365,0,27.866-12.501,27.866-27.866S431.498,332.724,416.133,332.724z M416.134,373.252c-6.983,0-12.662-5.68-12.662-12.662
			s5.68-12.662,12.662-12.662c6.982,0,12.662,5.68,12.662,12.662S423.117,373.252,416.134,373.252z"/>
	</g>
</g>
<g>
	<g>
		<path d="M383.712,169.202h-5.452h-68.74h-5.454c-30.466,0-55.251,24.785-55.251,55.25s24.785,55.25,55.251,55.25h5.454h68.74
			h5.452c30.466,0,55.251-24.785,55.251-55.25C438.963,193.987,414.178,169.202,383.712,169.202z M309.52,264.498h-5.454
			c-22.082,0-40.047-17.965-40.047-40.046c0-22.081,17.965-40.046,40.047-40.046h5.454V264.498z M363.056,264.498h-38.332v-80.092
			h38.332V264.498z M383.712,264.498h-5.452v-80.092h5.452c22.082,0,40.047,17.965,40.047,40.046S405.796,264.498,383.712,264.498z"
			/>
	</g>
</g>
</svg>